# xmcd CD database file
#
# Track frame offsets:
#	150
#	16088
#	29694
#	42309
#	55079
#	66289
#	77593
#	88927
#	98855
#	108448
#	121750
#	134857
#	147310
#	158069
#	168413
#	178603
#	188211
#	200219
#	215759
#	229264
#	241904
#	251805
#	267572
#	278650
#	289437
#	298547
#	308130
#
# Disc length: 4322 seconds
#
# Revision: 1
# Processed by: cddbd v1.5.2PL0 Copyright (c) Steve Scherf et al.
# Submitted via: CDex 1.95
#
DISCID=a410e01b
DTITLE=Various Artist - 75 Country Classics Cd 2-3
DYEAR=1900
DGENRE=Country
TTITLE0=Luckenbach Texas - Johnny Russel
TTITLE1=Big Bad John - Jimmy Dean
TTITLE2=You've Got The Power - Billie Jo Spears
TTITLE3=(Me) Elusive Dreams - David Houston
TTITLE4=Keep On The Sunnyside - Wilma Lee and Stoney Cooper
TTITLE5=Have I Told You Lately That I Love You - Stonewall Jackson
TTITLE6=Talk Back Trembling Lips - Ernie Ashworth
TTITLE7=Southern Loving - Jim Ed Brown
TTITLE8=Second Hand Rose - Roy Drusky
TTITLE9=Rose Garden - Lynn Anderson
TTITLE10=He's So Fine - Jody Miller
TTITLE11=Never Ending Song Of Love - Dickey Lee
TTITLE12=Am I That Easy To Forget - Carl Belew
TTITLE13=None Of My Business - Henson Gargill
TTITLE14=Fancy Satin Pillow - Wanda Jackson
TTITLE15=Women In Love - Bonnie Guitar
TTITLE16=There Goes My Everything - Jack Greene
TTITLE17=No Charge - Melba Montgomery
TTITLE18=Tie A Yellow Ribbon Round The Ole Oak Tree - Johnny Carver
TTITLE19=Wolverton Mountain - Claude King
TTITLE20=From A Jack To A King - Ned Miller
TTITLE21=Lord I'm Coming Home - Tommy Collins
TTITLE22=Don't Call Me From A Honky Tonk - Johnny and Jonie Mosby
TTITLE23=Whiskey River - Johnny Bush
TTITLE24=Dear Mama - Merle Kilgore
TTITLE25=Truck Drivin' Son Of A Gun - Dave Dudley
TTITLE26=The Old Rugged Cross - Bill Philips
EXTD=
EXTT0=
EXTT1=
EXTT2=
EXTT3=
EXTT4=
EXTT5=
EXTT6=
EXTT7=
EXTT8=
EXTT9=
EXTT10=
EXTT11=
EXTT12=
EXTT13=
EXTT14=
EXTT15=
EXTT16=
EXTT17=
EXTT18=
EXTT19=
EXTT20=
EXTT21=
EXTT22=
EXTT23=
EXTT24=
EXTT25=
EXTT26=
PLAYORDER=
